<svg xmlns="http://www.w3.org/2000/svg" viewBox="0 0 1254 1254" width="1254" height="1254">
  <path fill="#000000" fill-rule="evenodd" d="M1012.0,1197.5 L399.0,1197.5 L398.0,1196.5 L391.0,1197.5 L225.0,1197.5 L208.0,1194.5 L195.0,1188.5 L187.0,1182.5 L177.5,1172.0 L170.5,1159.0 L166.5,1142.0 L166.5,1014.0 L118.0,1013.5 L107.0,1010.5 L93.0,1002.5 L83.5,993.0 L75.5,979.0 L72.5,967.0 L72.5,951.0 L77.5,934.0 L87.5,920.0 L95.0,913.5 L108.0,906.5 L119.0,903.5 L166.5,903.0 L166.5,770.0 L123.0,769.5 L104.0,764.5 L95.0,759.5 L82.5,747.0 L76.5,737.0 L72.5,723.0 L72.5,705.0 L75.5,694.0 L82.5,681.0 L94.0,669.5 L106.0,662.5 L116.0,659.5 L166.5,658.0 L166.5,521.0 L119.0,520.5 L105.0,516.5 L93.0,509.5 L83.5,500.0 L77.5,491.0 L72.5,475.0 L72.5,460.0 L76.5,446.0 L83.5,434.0 L97.0,421.5 L106.0,416.5 L121.0,412.5 L166.5,412.0 L166.5,275.0 L165.0,273.5 L144.0,273.5 L143.0,274.5 L117.0,273.5 L100.0,267.5 L94.0,263.5 L79.5,248.0 L73.5,234.0 L72.5,213.0 L76.5,199.0 L82.5,189.0 L90.0,180.5 L101.0,172.5 L118.0,166.5 L166.5,166.0 L166.5,107.0 L167.5,101.0 L173.5,84.0 L181.5,73.0 L191.0,64.5 L203.0,57.5 L218.0,53.5 L1024.0,53.5 L1033.0,55.5 L1044.0,60.5 L1054.0,67.5 L1063.5,78.0 L1070.5,91.0 L1074.5,107.0 L1074.5,166.0 L1072.0,170.5 L1068.0,172.5 L1062.0,171.5 L1058.5,168.0 L1057.5,163.0 L1058.5,161.0 L1058.5,113.0 L1055.5,97.0 L1048.5,85.0 L1042.0,78.5 L1032.0,72.5 L1020.0,69.5 L220.0,69.5 L209.0,72.5 L198.0,79.5 L188.5,91.0 L183.5,104.0 L183.5,196.0 L182.5,197.0 L183.5,240.0 L182.5,241.0 L183.5,257.0 L223.0,257.5 L230.0,255.5 L239.0,250.5 L247.5,242.0 L252.5,231.0 L253.5,218.0 L257.0,213.5 L260.0,212.5 L266.0,213.5 L269.5,219.0 L269.5,230.0 L265.5,243.0 L258.5,254.0 L246.0,265.5 L234.0,271.5 L226.0,273.5 L190.0,273.5 L182.5,275.0 L183.5,276.0 L183.5,287.0 L182.5,288.0 L182.5,301.0 L183.5,302.0 L183.5,312.0 L182.5,313.0 L182.5,327.0 L183.5,328.0 L183.5,407.0 L182.5,408.0 L183.5,476.0 L182.5,477.0 L182.5,487.0 L183.5,497.0 L182.5,501.0 L183.5,502.0 L182.5,503.0 L184.0,504.5 L221.0,504.5 L229.0,502.5 L241.0,495.5 L247.5,488.0 L252.5,477.0 L253.5,463.0 L256.0,458.5 L263.0,456.5 L267.0,458.5 L269.5,463.0 L269.5,475.0 L265.5,489.0 L255.5,504.0 L248.0,510.5 L240.0,515.5 L223.0,520.5 L183.5,521.0 L183.5,534.0 L182.5,535.0 L182.5,547.0 L183.5,548.0 L183.5,579.0 L182.5,580.0 L183.5,709.0 L182.5,710.0 L182.5,720.0 L183.5,721.0 L182.5,750.0 L183.5,751.0 L182.5,752.0 L184.0,753.5 L219.0,753.5 L231.0,750.5 L239.0,745.5 L249.5,733.0 L253.5,721.0 L253.5,709.0 L260.0,703.5 L266.0,704.5 L269.5,709.0 L269.5,724.0 L265.5,737.0 L256.5,751.0 L246.0,760.5 L239.0,764.5 L227.0,768.5 L182.5,770.0 L183.5,771.0 L182.5,772.0 L183.5,775.0 L183.5,838.0 L182.5,839.0 L183.5,995.0 L182.5,996.0 L184.0,997.5 L223.0,997.5 L230.0,995.5 L241.0,988.5 L247.5,981.0 L253.5,966.0 L254.5,952.0 L257.0,949.5 L264.0,948.5 L268.5,952.0 L269.5,955.0 L269.5,968.0 L266.5,979.0 L258.5,993.0 L248.0,1003.5 L238.0,1009.5 L225.0,1013.5 L184.0,1013.5 L182.5,1015.0 L183.5,1016.0 L182.5,1138.0 L185.5,1153.0 L192.5,1165.0 L205.0,1175.5 L218.0,1180.5 L1022.0,1180.5 L1034.0,1176.5 L1040.0,1172.5 L1051.5,1160.0 L1057.5,1146.0 L1058.5,1138.0 L1058.5,1017.0 L1057.5,1016.0 L1057.5,1003.0 L1058.5,1002.0 L1058.5,976.0 L1057.5,975.0 L1058.5,965.0 L1058.5,711.0 L1064.0,706.5 L1068.0,706.5 L1071.0,707.5 L1074.5,712.0 L1074.5,1142.0 L1072.5,1153.0 L1066.5,1167.0 L1062.5,1173.0 L1051.0,1184.5 L1042.0,1190.5 L1032.0,1194.5 L1012.0,1197.5 Z M166.5,257.0 L166.0,182.5 L121.0,182.5 L111.0,185.5 L97.5,196.0 L89.5,212.0 L88.5,227.0 L94.5,241.0 L101.0,248.5 L119.0,257.5 L166.5,257.0 Z M385.0,231.5 L379.0,231.5 L373.0,229.5 L366.5,223.0 L364.5,217.0 L364.5,211.0 L366.5,206.0 L373.0,199.5 L378.0,197.5 L385.0,197.5 L390.0,199.5 L395.5,204.0 L398.5,209.0 L399.5,214.0 L397.5,222.0 L392.0,228.5 L385.0,231.5 Z M705.0,221.5 L464.0,221.5 L457.5,217.0 L456.5,211.0 L461.0,205.5 L464.0,204.5 L481.0,204.5 L482.0,205.5 L491.0,204.5 L505.0,204.5 L506.0,205.5 L532.0,205.5 L533.0,204.5 L708.0,205.5 L711.5,209.0 L712.5,214.0 L711.5,217.0 L705.0,221.5 Z M475.0,962.5 L467.0,961.5 L458.5,955.0 L456.5,950.0 L457.5,937.0 L559.5,703.0 L568.5,692.0 L1011.0,249.5 L1020.0,243.5 L1042.0,233.5 L1060.0,229.5 L1088.0,229.5 L1113.0,236.5 L1125.0,242.5 L1140.0,253.5 L1152.5,266.0 L1163.5,282.0 L1171.5,299.0 L1176.5,322.0 L1176.5,343.0 L1172.5,363.0 L1165.5,380.0 L1153.5,398.0 L775.5,776.0 L700.0,853.5 L486.0,957.5 L482.0,960.5 L475.0,962.5 Z M1115.5,412.0 L1142.5,385.0 L1151.5,371.0 L1156.5,359.0 L1159.5,346.0 L1160.5,329.0 L1157.5,310.0 L1151.5,294.0 L1140.5,277.0 L1129.0,265.5 L1115.0,255.5 L1095.0,247.5 L1084.0,245.5 L1064.0,245.5 L1049.0,248.5 L1030.0,256.5 L1014.0,268.5 L995.5,287.0 L993.5,291.0 L1115.5,412.0 Z M701.5,828.0 L1103.5,424.0 L982.0,302.5 L980.0,302.5 L863.5,419.0 L577.5,707.0 L670.0,799.5 L700.0,828.5 L701.5,828.0 Z M166.5,504.0 L166.0,428.5 L119.0,429.5 L105.0,435.5 L95.5,445.0 L91.5,452.0 L88.5,462.0 L88.5,473.0 L93.5,486.0 L104.0,497.5 L111.0,501.5 L122.0,504.5 L166.5,504.0 Z M1069.0,650.5 L1059.0,648.5 L1053.5,644.0 L1050.5,639.0 L1050.5,628.0 L1052.5,624.0 L1057.0,619.5 L1064.0,616.5 L1070.0,616.5 L1077.0,619.5 L1081.5,624.0 L1084.5,632.0 L1083.5,639.0 L1080.5,644.0 L1075.0,648.5 L1069.0,650.5 Z M162.5,753.0 L166.5,752.0 L166.5,675.0 L123.0,674.5 L114.0,676.5 L105.0,681.5 L93.5,694.0 L88.5,708.0 L89.5,725.0 L97.5,740.0 L108.0,748.5 L118.0,752.5 L124.0,753.5 L162.5,753.0 Z M473.5,946.0 L688.5,841.0 L570.0,722.5 L566.5,728.0 L557.5,751.0 L547.5,771.0 L541.5,787.0 L531.5,807.0 L526.5,821.0 L482.5,919.0 L478.5,931.0 L472.5,943.0 L472.5,946.0 L473.5,946.0 Z M166.5,997.0 L166.0,919.5 L121.0,919.5 L108.0,924.5 L95.5,936.0 L88.5,953.0 L88.5,966.0 L93.5,979.0 L104.0,990.5 L113.0,995.5 L120.0,997.5 L166.5,997.0 Z"/>
</svg>
